<svg width="35" height="35" viewBox="0 0 35 35" fill="none" xmlns="http://www.w3.org/2000/svg">
<path d="M7.29175 8.02067C7.29175 6.66696 7.82951 5.3687 8.78672 4.41148C9.74394 3.45426 11.0422 2.9165 12.3959 2.9165H17.5001V13.1248H12.3959C11.0422 13.1248 9.74394 12.5871 8.78672 11.6299C7.82951 10.6726 7.29175 9.37438 7.29175 8.02067Z" stroke="#00DF5E" stroke-width="1.25" stroke-linecap="round" stroke-linejoin="round"/>
<path d="M17.5 2.9165H22.6042C23.2745 2.9165 23.9382 3.04853 24.5574 3.30504C25.1767 3.56154 25.7394 3.93751 26.2134 4.41148C26.6873 4.88545 27.0633 5.44812 27.3198 6.06739C27.5763 6.68666 27.7083 7.35038 27.7083 8.02067C27.7083 8.69096 27.5763 9.35468 27.3198 9.97395C27.0633 10.5932 26.6873 11.1559 26.2134 11.6299C25.7394 12.1038 25.1767 12.4798 24.5574 12.7363C23.9382 12.9928 23.2745 13.1248 22.6042 13.1248H17.5V2.9165Z" stroke="#00DF5E" stroke-width="1.25" stroke-linecap="round" stroke-linejoin="round"/>
<path d="M17.5 18.2292C17.5 17.5589 17.632 16.8952 17.8885 16.2759C18.145 15.6566 18.521 15.0939 18.995 14.62C19.4689 14.146 20.0316 13.77 20.6509 13.5135C21.2702 13.257 21.9339 13.125 22.6042 13.125C23.2745 13.125 23.9382 13.257 24.5574 13.5135C25.1767 13.77 25.7394 14.146 26.2134 14.62C26.6873 15.0939 27.0633 15.6566 27.3198 16.2759C27.5763 16.8952 27.7083 17.5589 27.7083 18.2292C27.7083 18.8995 27.5763 19.5632 27.3198 20.1824C27.0633 20.8017 26.6873 21.3644 26.2134 21.8384C25.7394 22.3123 25.1767 22.6883 24.5574 22.9448C23.9382 23.2013 23.2745 23.3333 22.6042 23.3333C21.9339 23.3333 21.2702 23.2013 20.6509 22.9448C20.0316 22.6883 19.4689 22.3123 18.995 21.8384C18.521 21.3644 18.145 20.8017 17.8885 20.1824C17.632 19.5632 17.5 18.8995 17.5 18.2292V18.2292Z" stroke="#00DF5E" stroke-width="1.25" stroke-linecap="round" stroke-linejoin="round"/>
<path d="M7.29175 28.4377C7.29175 27.084 7.82951 25.7857 8.78672 24.8285C9.74394 23.8713 11.0422 23.3335 12.3959 23.3335H17.5001V28.4377C17.5001 29.7914 16.9623 31.0896 16.0051 32.0469C15.0479 33.0041 13.7496 33.5418 12.3959 33.5418C11.0422 33.5418 9.74394 33.0041 8.78672 32.0469C7.82951 31.0896 7.29175 29.7914 7.29175 28.4377Z" stroke="#00DF5E" stroke-width="1.25" stroke-linecap="round" stroke-linejoin="round"/>
<path d="M7.29175 18.2292C7.29175 16.8755 7.82951 15.5772 8.78672 14.62C9.74394 13.6628 11.0422 13.125 12.3959 13.125H17.5001V23.3333H12.3959C11.0422 23.3333 9.74394 22.7956 8.78672 21.8384C7.82951 20.8811 7.29175 19.5829 7.29175 18.2292Z" stroke="#00DF5E" stroke-width="1.25" stroke-linecap="round" stroke-linejoin="round"/>
</svg>
