<svg width="42" height="48" viewBox="0 0 42 48" fill="none" xmlns="http://www.w3.org/2000/svg">
<g clip-path="url(#clip0_92433_829)">
<path d="M38.732 42.846L42.558 0H0L0.05 0.556L3.82 42.852L3.852 43.204L21.118 48H21.39L38.696 43.2L38.728 42.848L38.732 42.846ZM21.316 9.358H33.682L33.31 13.678L21.11 19.102L21.314 20.078H32.762L31.444 35.18L21.272 38L11.104 35.184L10.464 27.952H14.65L14.986 31.618L15.018 31.974L21.188 33.614H21.454L27.556 31.918L27.586 31.564L28.162 24.792L28.208 24.24H10.114L9.734 19.894L22.352 14.492L22.152 13.512H9.192L8.822 9.352H21.302L21.316 9.358Z" fill="#00DF5E"/>
</g>
<defs>
<clipPath id="clip0_92433_829">
<rect width="42" height="48" fill="white"/>
</clipPath>
</defs>
</svg>
