<svg width="48" height="30" viewBox="0 0 48 30" fill="none" xmlns="http://www.w3.org/2000/svg">
<g clip-path="url(#clip0_92433_809)">
<path d="M11.3259 8.15257H20.3792V8.87219H12.1558V14.2879H19.8889V15.0074H12.1558V20.9533H20.4735V21.6728H11.3259V8.15257ZM21.1903 8.15257H22.1522L26.4147 14.0985L30.7716 8.15248L36.6976 0.599976L26.9617 14.7234L31.9787 21.6728H30.979L26.4147 15.3483L21.8315 21.6728H20.8507L25.9055 14.7233L21.1902 8.15257H21.1903ZM32.337 8.87219V8.15248H42.654V8.8721H37.901V21.6727H37.0711V8.87219H32.337ZM0 8.15248H1.03734L15.3417 29.5578L9.4305 21.6727L0.867562 9.1751L0.829875 21.6729H0V8.15248ZM42.5704 20.736C42.4008 20.736 42.2737 20.6047 42.2737 20.4349C42.2737 20.2652 42.4008 20.1337 42.5704 20.1337C42.7419 20.1337 42.8671 20.2651 42.8671 20.4349C42.8671 20.6046 42.7419 20.736 42.5704 20.736ZM43.3858 19.9438H43.8299C43.8359 20.1843 44.0115 20.346 44.2699 20.346C44.5585 20.346 44.722 20.1722 44.722 19.8468V17.7852H45.1742V19.8487C45.1742 20.4349 44.8351 20.7724 44.2739 20.7724C43.747 20.7724 43.3858 20.445 43.3858 19.9437V19.9438ZM45.7656 19.9175H46.2137C46.252 20.1944 46.5225 20.3702 46.9121 20.3702C47.2754 20.3702 47.5418 20.1822 47.5418 19.9235C47.5418 19.7013 47.3722 19.5679 46.9867 19.4769L46.6113 19.386C46.0844 19.2626 45.8443 19.008 45.8443 18.5795C45.8443 18.0602 46.2682 17.7145 46.904 17.7145C47.4953 17.7145 47.9273 18.0601 47.9536 18.5512H47.5135C47.4712 18.2824 47.237 18.1146 46.8979 18.1146C46.5407 18.1146 46.3026 18.2865 46.3026 18.5492C46.3026 18.7573 46.4558 18.8766 46.8353 18.9655L47.1562 19.0444C47.7537 19.1839 48 19.4264 48 19.8649C48 20.4228 47.5681 20.7724 46.8778 20.7724C46.2319 20.7724 45.7978 20.4389 45.7656 19.9174V19.9175Z" fill="#00DF5E"/>
</g>
<defs>
<clipPath id="clip0_92433_809">
<rect width="48" height="28.9688" fill="white" transform="translate(0 0.599976)"/>
</clipPath>
</defs>
</svg>
